<svg width="192" height="40" viewBox="0 0 192 40" fill="none" xmlns="http://www.w3.org/2000/svg">
<path d="M74.0769 17.5714C72.9077 17.5714 71.8523 18.0086 71.0846 18.7229C70.6913 19.0872 70.3794 19.52 70.1669 19.9966C69.9543 20.4732 69.8453 20.9842 69.8462 21.5C69.8462 22.5857 70.3169 23.5643 71.0846 24.2771C71.8538 24.9914 72.9077 25.4286 74.0769 25.4286C75.0381 25.4307 75.9711 25.1267 76.72 24.5671C76.9171 24.4204 77.1434 24.3112 77.3859 24.2457C77.6284 24.1802 77.8825 24.1597 78.1336 24.1854C78.3847 24.211 78.6278 24.2824 78.8492 24.3953C79.0706 24.5082 79.2659 24.6606 79.4238 24.8436C79.5818 25.0266 79.6995 25.2367 79.77 25.4619C79.8405 25.6871 79.8626 25.923 79.835 26.1562C79.8073 26.3893 79.7305 26.6151 79.6089 26.8207C79.4873 27.0263 79.3232 27.2076 79.1262 27.3543C77.6946 28.4217 75.9129 29.0024 74.0769 29C73.0162 29.0007 71.9657 28.8069 70.9857 28.4299C70.0058 28.0529 69.1156 27.5 68.3662 26.8029C67.6154 26.107 67.02 25.2804 66.614 24.3704C66.2079 23.4604 65.9993 22.485 66 21.5C66 19.4286 66.9062 17.5514 68.3662 16.1971C69.1156 15.5 70.0058 14.9471 70.9857 14.5701C71.9657 14.1931 73.0162 13.9993 74.0769 14C76.2615 14 78.1092 14.6386 79.7877 16.1971C81.1754 17.4843 81.9462 19.1486 82.5677 20.4886C83.3092 22.0886 83.8985 23.3171 84.9323 24.2786C85.7 24.9914 86.7538 25.4286 87.9231 25.4286C89.0923 25.4286 90.1462 24.9914 90.9154 24.2771C91.6831 23.5643 92.1538 22.5857 92.1538 21.5C92.1538 20.4143 91.6831 19.4357 90.9154 18.7229C90.523 18.3572 90.0566 18.0672 89.5431 17.8696C89.0295 17.672 88.479 17.5707 87.9231 17.5714C86.9619 17.5693 86.0289 17.8733 85.28 18.4329C85.0829 18.5796 84.8566 18.6888 84.6141 18.7543C84.3716 18.8198 84.1175 18.8403 83.8664 18.8146C83.6153 18.789 83.3722 18.7176 83.1508 18.6047C82.9294 18.4918 82.7341 18.3394 82.5762 18.1564C82.4182 17.9734 82.3005 17.7633 82.23 17.5381C82.1595 17.3129 82.1374 17.077 82.165 16.8438C82.1927 16.6107 82.2695 16.3849 82.3911 16.1793C82.5127 15.9737 82.6768 15.7924 82.8738 15.6457C84.3054 14.5783 86.0871 13.9976 87.9231 14C90.1538 14 92.1754 14.8414 93.6338 16.1971C94.3846 16.893 94.98 17.7196 95.386 18.6296C95.7921 19.5396 96.0007 20.515 96 21.5C96 23.5714 95.0938 25.4486 93.6338 26.8029C92.8844 27.5 91.9942 28.0529 91.0143 28.4299C90.0343 28.8069 88.9838 29.0007 87.9231 29C86.8623 29.0007 85.8119 28.8069 84.8319 28.4299C83.8519 28.0529 82.9617 27.5 82.2123 26.8029C80.7908 25.4829 79.9231 23.8086 79.1354 22.1171C78.42 20.5786 77.9092 19.5029 77.0692 18.7229C76.1462 17.8657 75.2908 17.5714 74.0769 17.5714Z" fill="white"/>
<path d="M10.08 12.584C10.08 11.6667 10.3467 10.9413 10.88 10.408C11.4133 9.87467 12.1387 9.608 13.056 9.608H23.616C23.7653 9.84267 23.8933 10.152 24 10.536C24.128 10.92 24.192 11.3253 24.192 11.752C24.192 12.5627 24.0107 13.1387 23.648 13.48C23.3067 13.8213 22.848 13.992 22.272 13.992H15.52V16.968H22.72C22.8693 17.2027 22.9973 17.512 23.104 17.896C23.232 18.2587 23.296 18.6533 23.296 19.08C23.296 19.8907 23.1253 20.4667 22.784 20.808C22.4427 21.1493 21.984 21.32 21.408 21.32H15.52V24.68H23.744C23.8933 24.9147 24.0213 25.224 24.128 25.608C24.256 25.992 24.32 26.3973 24.32 26.824C24.32 27.6347 24.1387 28.2213 23.776 28.584C23.4347 28.9253 22.976 29.096 22.4 29.096H13.056C12.1387 29.096 11.4133 28.8293 10.88 28.296C10.3467 27.7627 10.08 27.0373 10.08 26.12V12.584ZM26.0545 21.224C26.0545 19.816 26.2678 18.6 26.6945 17.576C27.1212 16.5307 27.7078 15.6667 28.4545 14.984C29.2225 14.3013 30.1078 13.8 31.1105 13.48C32.1345 13.1387 33.2332 12.968 34.4065 12.968C34.8332 12.968 35.2492 13.0107 35.6545 13.096C36.0598 13.16 36.3905 13.2453 36.6465 13.352V8.168C36.8598 8.104 37.2012 8.04 37.6705 7.976C38.1398 7.89067 38.6198 7.848 39.1105 7.848C39.5798 7.848 39.9958 7.88 40.3585 7.944C40.7425 8.008 41.0625 8.136 41.3185 8.328C41.5745 8.52 41.7665 8.78667 41.8945 9.128C42.0225 9.448 42.0865 9.87467 42.0865 10.408V25.576C42.0865 26.5787 41.6172 27.3787 40.6785 27.976C40.0598 28.3813 39.2598 28.7333 38.2785 29.032C37.2972 29.352 36.1665 29.512 34.8865 29.512C33.4998 29.512 32.2518 29.32 31.1425 28.936C30.0545 28.552 29.1265 27.9973 28.3585 27.272C27.6118 26.5467 27.0358 25.6827 26.6305 24.68C26.2465 23.656 26.0545 22.504 26.0545 21.224ZM35.1425 17.224C33.9905 17.224 33.1052 17.5547 32.4865 18.216C31.8678 18.8773 31.5585 19.88 31.5585 21.224C31.5585 22.5467 31.8465 23.5493 32.4225 24.232C32.9985 24.8933 33.8305 25.224 34.9185 25.224C35.3025 25.224 35.6438 25.1707 35.9425 25.064C36.2625 24.936 36.5078 24.7973 36.6785 24.648V17.608C36.2518 17.352 35.7398 17.224 35.1425 17.224ZM45.4765 13.672C45.6898 13.608 46.0205 13.544 46.4685 13.48C46.9378 13.416 47.4178 13.384 47.9085 13.384C48.3778 13.384 48.7938 13.416 49.1565 13.48C49.5405 13.544 49.8605 13.672 50.1165 13.864C50.3725 14.056 50.5645 14.3227 50.6925 14.664C50.8418 14.984 50.9165 15.4107 50.9165 15.944V22.824C50.9165 23.6987 51.1298 24.328 51.5565 24.712C51.9832 25.0747 52.6018 25.256 53.4125 25.256C53.9032 25.256 54.2978 25.2133 54.5965 25.128C54.9165 25.0427 55.1618 24.9573 55.3325 24.872V13.672C55.5458 13.608 55.8765 13.544 56.3245 13.48C56.7938 13.416 57.2738 13.384 57.7645 13.384C58.2338 13.384 58.6498 13.416 59.0125 13.48C59.3965 13.544 59.7165 13.672 59.9725 13.864C60.2285 14.056 60.4205 14.3227 60.5485 14.664C60.6978 14.984 60.7725 15.4107 60.7725 15.944V25.672C60.7725 26.7387 60.3245 27.5387 59.4285 28.072C58.6818 28.5413 57.7858 28.8933 56.7405 29.128C55.7165 29.384 54.5965 29.512 53.3805 29.512C52.2285 29.512 51.1618 29.384 50.1805 29.128C49.2205 28.872 48.3885 28.4773 47.6845 27.944C46.9805 27.4107 46.4365 26.728 46.0525 25.896C45.6685 25.0427 45.4765 24.0187 45.4765 22.824V13.672ZM112.395 19.144C112.395 18.4827 112.203 18.0027 111.819 17.704C111.456 17.384 110.955 17.224 110.315 17.224C109.888 17.224 109.462 17.2773 109.035 17.384C108.63 17.4907 108.278 17.6507 107.979 17.864V28.968C107.766 29.032 107.424 29.096 106.955 29.16C106.507 29.224 106.038 29.256 105.547 29.256C105.078 29.256 104.651 29.224 104.267 29.16C103.904 29.096 103.595 28.968 103.339 28.776C103.083 28.584 102.88 28.328 102.731 28.008C102.603 27.6667 102.539 27.2293 102.539 26.696V17.096C102.539 16.52 102.656 16.0507 102.891 15.688C103.147 15.3253 103.488 14.9947 103.915 14.696C104.64 14.184 105.547 13.768 106.635 13.448C107.744 13.128 108.971 12.968 110.315 12.968C112.726 12.968 114.582 13.5013 115.883 14.568C117.184 15.6133 117.835 17.0747 117.835 18.952V28.968C117.622 29.032 117.28 29.096 116.811 29.16C116.363 29.224 115.894 29.256 115.403 29.256C114.934 29.256 114.507 29.224 114.123 29.16C113.76 29.096 113.451 28.968 113.195 28.776C112.939 28.584 112.736 28.328 112.587 28.008C112.459 27.6667 112.395 27.2293 112.395 26.696V19.144ZM131.051 19.144C131.051 18.4827 130.859 18.0027 130.475 17.704C130.113 17.384 129.611 17.224 128.971 17.224C128.545 17.224 128.118 17.2773 127.691 17.384C127.286 17.4907 126.934 17.6507 126.635 17.864V28.968C126.422 29.032 126.081 29.096 125.611 29.16C125.163 29.224 124.694 29.256 124.203 29.256C123.734 29.256 123.307 29.224 122.923 29.16C122.561 29.096 122.251 28.968 121.995 28.776C121.739 28.584 121.537 28.328 121.387 28.008C121.259 27.6667 121.195 27.2293 121.195 26.696V17.096C121.195 16.52 121.313 16.0507 121.547 15.688C121.803 15.3253 122.145 14.9947 122.571 14.696C123.297 14.184 124.203 13.768 125.291 13.448C126.401 13.128 127.627 12.968 128.971 12.968C131.382 12.968 133.238 13.5013 134.539 14.568C135.841 15.6133 136.491 17.0747 136.491 18.952V28.968C136.278 29.032 135.937 29.096 135.467 29.16C135.019 29.224 134.55 29.256 134.059 29.256C133.59 29.256 133.163 29.224 132.779 29.16C132.417 29.096 132.107 28.968 131.851 28.776C131.595 28.584 131.393 28.328 131.243 28.008C131.115 27.6667 131.051 27.2293 131.051 26.696V19.144ZM148.076 29.512C146.817 29.512 145.644 29.3413 144.556 29C143.489 28.6373 142.55 28.104 141.74 27.4C140.95 26.696 140.321 25.8107 139.852 24.744C139.404 23.6773 139.18 22.4293 139.18 21C139.18 19.592 139.404 18.3867 139.852 17.384C140.321 16.36 140.929 15.528 141.676 14.888C142.422 14.2267 143.276 13.7467 144.236 13.448C145.196 13.128 146.177 12.968 147.18 12.968C148.31 12.968 149.334 13.1387 150.252 13.48C151.19 13.8213 151.99 14.2907 152.652 14.888C153.334 15.4853 153.857 16.2 154.22 17.032C154.604 17.864 154.796 18.7707 154.796 19.752C154.796 20.4773 154.593 21.032 154.188 21.416C153.782 21.8 153.217 22.0453 152.492 22.152L144.588 23.336C144.822 24.04 145.302 24.5733 146.028 24.936C146.753 25.2773 147.585 25.448 148.524 25.448C149.398 25.448 150.22 25.3413 150.988 25.128C151.777 24.8933 152.417 24.6267 152.908 24.328C153.249 24.5413 153.537 24.84 153.772 25.224C154.006 25.608 154.124 26.0133 154.124 26.44C154.124 27.4 153.676 28.1147 152.78 28.584C152.097 28.9467 151.329 29.192 150.476 29.32C149.622 29.448 148.822 29.512 148.076 29.512ZM147.18 16.936C146.668 16.936 146.22 17.0213 145.836 17.192C145.473 17.3627 145.174 17.5867 144.94 17.864C144.705 18.12 144.524 18.4187 144.396 18.76C144.289 19.08 144.225 19.4107 144.204 19.752L149.676 18.856C149.612 18.4293 149.377 18.0027 148.972 17.576C148.566 17.1493 147.969 16.936 147.18 16.936ZM166.182 17.256C165.649 17.256 165.137 17.3413 164.646 17.512C164.177 17.6827 163.761 17.9387 163.398 18.28C163.057 18.6 162.779 19.0053 162.566 19.496C162.353 19.9867 162.246 20.5627 162.246 21.224C162.246 22.5467 162.619 23.5387 163.366 24.2C164.134 24.8613 165.062 25.192 166.15 25.192C166.79 25.192 167.345 25.1173 167.814 24.968C168.283 24.8187 168.699 24.6587 169.062 24.488C169.489 24.7867 169.809 25.1173 170.022 25.48C170.235 25.8213 170.342 26.2373 170.342 26.728C170.342 27.6027 169.926 28.2853 169.094 28.776C168.262 29.2453 167.11 29.48 165.638 29.48C164.294 29.48 163.078 29.288 161.99 28.904C160.902 28.4987 159.963 27.944 159.174 27.24C158.406 26.5147 157.809 25.6507 157.382 24.648C156.955 23.6453 156.742 22.536 156.742 21.32C156.742 19.912 156.966 18.6853 157.414 17.64C157.883 16.5733 158.513 15.6987 159.302 15.016C160.091 14.3333 160.998 13.8213 162.022 13.48C163.067 13.1387 164.166 12.968 165.318 12.968C166.854 12.968 168.038 13.2453 168.87 13.8C169.702 14.3547 170.118 15.0693 170.118 15.944C170.118 16.3493 170.022 16.7333 169.83 17.096C169.638 17.4373 169.414 17.736 169.158 17.992C168.795 17.8213 168.358 17.6613 167.846 17.512C167.334 17.3413 166.779 17.256 166.182 17.256ZM178.51 23.656C178.51 24.2107 178.681 24.6053 179.022 24.84C179.385 25.0747 179.886 25.192 180.526 25.192C180.846 25.192 181.177 25.1707 181.518 25.128C181.86 25.064 182.158 24.9893 182.414 24.904C182.606 25.1387 182.766 25.4053 182.894 25.704C183.044 25.9813 183.118 26.3227 183.118 26.728C183.118 27.5387 182.809 28.2 182.19 28.712C181.593 29.224 180.526 29.48 178.99 29.48C177.113 29.48 175.662 29.0533 174.638 28.2C173.636 27.3467 173.134 25.96 173.134 24.04V10.344C173.369 10.28 173.7 10.216 174.126 10.152C174.574 10.0667 175.044 10.024 175.534 10.024C176.473 10.024 177.198 10.1947 177.71 10.536C178.244 10.856 178.51 11.5493 178.51 12.616V14.664H182.702C182.83 14.8987 182.948 15.1973 183.054 15.56C183.182 15.9013 183.246 16.2853 183.246 16.712C183.246 17.4587 183.076 18.0027 182.734 18.344C182.414 18.664 181.977 18.824 181.422 18.824H178.51V23.656Z" fill="white"/>
<path d="M1 1V0C0.447715 0 0 0.447715 0 1L1 1ZM191 1H192C192 0.447715 191.552 0 191 0V1ZM191 39V40C191.552 40 192 39.5523 192 39H191ZM1 39H0C0 39.5523 0.447715 40 1 40L1 39ZM75.6429 2H76.6429V0H75.6429V2ZM191 1H190V39H191H192V1H191ZM191 39V38H1V39V40H191V39ZM1 39H2V1H1H0V39H1ZM1 1V2H75.6429V1V0H1V1ZM113.549 1V2H191V1V0H113.549V1ZM97.9388 1V2H107.633V1V0H97.9388V1ZM82.4286 1V2H92.1225V1V0H82.4286V1Z" fill="white"/>
</svg>
